<svg xmlns="http://www.w3.org/2000/svg" viewBox="0 0 198 51">
<style type="text/css">
	.wdt-logo-01{fill:#514942;}
</style>
<path class="wdt-logo-01" d="M89.6,38.7c-1.2,0-2.3-0.4-3.3-1.1c-0.9-0.7-1.9-2.1-3-4l-3.5-6h-2.4v10.8h-3.2V19.5c0-1.2-0.2-2.1-0.5-2.6
	c-0.3-0.6-1-0.9-2-0.9H71v-0.7h9.1c2.2,0,4.2,0.4,6,1.3s2.7,2.5,2.7,5c0,3.1-1.9,5.1-5.6,5.9l3.7,6.1c0.9,1.4,1.6,2.5,2.3,3
	c0.7,0.6,1.5,0.9,2.4,1v0.8c-0.2,0.1-0.5,0.2-0.9,0.2C90.4,38.7,90,38.7,89.6,38.7z M80,26.5c0.7,0,1.5-0.2,2.3-0.5
	c0.9-0.4,1.6-0.9,2.2-1.6s0.9-1.7,0.9-2.7c0-1.1-0.3-2.1-0.9-2.8c-0.6-0.8-1.3-1.3-2.2-1.7c-0.8-0.4-1.6-0.6-2.3-0.6
	c-0.8,0-1.7,0.1-2.6,0.4v9.3C78.3,26.4,79.2,26.5,80,26.5z M95,19.5c0-1.2-0.2-2.1-0.5-2.6c-0.3-0.6-1-0.9-2-0.9h-0.7v-0.7h14.9
	c2,0,3,0.9,3,2.8v2.6H109c0-2.7-1.5-4-4.4-4h-6.5v9.1h9.4v1.4h-9.4V37h6.1c1.6,0,2.9-0.3,3.8-0.9c0.9-0.6,1.6-1.6,2.2-3l0.7,0.2
	l-1.2,3.3c-0.4,1.2-1.3,1.8-2.6,1.8H95V19.5z M112.8,37.7l14.5-21h-8.4c-2.9,0-4.4,1.3-4.4,4h-0.7v-2.6c0-1.9,1-2.8,3-2.8H132
	L117.1,37h14.4v1.4h-18.7V37.7z M144.5,39.1c-2.2,0-4.1-0.5-5.7-1.6c-1.6-1.1-2.9-2.5-3.8-4.4c-0.9-1.9-1.3-3.9-1.3-6.2
	s0.4-4.4,1.3-6.2c0.9-1.9,2.1-3.3,3.8-4.4s3.6-1.6,5.7-1.6s4.1,0.5,5.7,1.6c1.7,1.1,2.9,2.5,3.8,4.4c0.9,1.9,1.3,3.9,1.3,6.2
	s-0.4,4.4-1.3,6.2c-0.9,1.9-2.2,3.3-3.8,4.4C148.6,38.6,146.7,39.1,144.5,39.1z M144.5,37.7c1.5,0,2.8-0.4,3.9-1.3
	c1.1-0.9,2-2.1,2.6-3.7c0.6-1.6,0.9-3.6,0.9-5.8s-0.3-4.1-0.9-5.7c-0.6-1.6-1.4-2.9-2.6-3.8c-1.1-0.9-2.4-1.3-3.9-1.3
	s-2.8,0.4-4,1.3c-1.1,0.9-1.9,2.1-2.5,3.8c-0.6,1.6-0.9,3.5-0.9,5.7s0.3,4.1,0.9,5.8c0.6,1.6,1.4,2.9,2.5,3.7
	C141.6,37.3,143,37.7,144.5,37.7z M175.8,38.7c-1.2,0-2.3-0.4-3.3-1.1c-0.9-0.7-1.9-2.1-3-4l-3.5-6h-2.4v10.8h-3.2V19.5
	c0-1.2-0.2-2.1-0.5-2.6c-0.3-0.6-1-0.9-2-0.9h-0.7v-0.7h9.1c2.2,0,4.2,0.4,6,1.3s2.7,2.5,2.7,5c0,3.1-1.9,5.1-5.6,5.9l3.7,6.1
	c0.9,1.4,1.6,2.5,2.3,3c0.7,0.6,1.5,0.9,2.4,1v0.8c-0.2,0.1-0.5,0.2-0.9,0.2C176.6,38.7,176.2,38.7,175.8,38.7z M166.2,26.5
	c0.7,0,1.5-0.2,2.3-0.5c0.9-0.4,1.6-0.9,2.2-1.6c0.6-0.7,0.9-1.7,0.9-2.7c0-1.1-0.3-2.1-0.9-2.8c-0.6-0.8-1.3-1.3-2.2-1.7
	c-0.8-0.4-1.6-0.6-2.3-0.6c-0.8,0-1.7,0.1-2.6,0.4v9.3C164.5,26.4,165.4,26.5,166.2,26.5z M186.5,16.7h-3.2c-2.9,0-4.4,1.3-4.4,4
	h-0.7v-2.6c0-1.9,1-2.8,3-2.8h16.3v1.4h-7.9v21.7h-3.1V16.7z"/>
<path class="wdt-logo-01" d="M31.4,6.4v44.2h-1.6V6.4l-1.7,2.1c0,0-1.1-0.8-0.7-2s0.9-1.3,0.9-1.3l-3.4,1.7c0,0-0.6-1.3,0.4-2.2s2.8-1,2.8-1
	l-3.6-0.5c0,0,0.7-1.2,2.3-1.2c1.6,0,2.3,0.6,2.3,0.6l-2.7-2.1c0,0,3.4-0.7,4.2,1c0.8-1.7,4.2-1,4.2-1l-2.7,2.1c0,0,0.7-0.6,2.3-0.6
	s2.3,1.2,2.3,1.2l-3.6,0.5c0,0,1.8,0.1,2.8,1s0.4,2.2,0.4,2.2l-3.4-1.7c0,0,0.5,0.1,0.9,1.3s-0.7,2-0.7,2L31.4,6.4L31.4,6.4z"/>
<path class="wdt-logo-01" d="M4.6,48.5v-2.6l8.8-7.9v2.1l-7.2,6.5v3.5H0.5v-1.6H4.6L4.6,48.5z M51.7,48.5h4.1v1.6h-5.7V15.9l-9.5-7.7
	l-7.2,6.4v-2.1l7.2-6.4l11.2,9L51.7,48.5L51.7,48.5z M14.8,50.1V29.3l8.3-8.6l4.6,3.4v2l-4.5-3.3l-6.9,7.1v20.2H14.8L14.8,50.1z
	 M29.8,25.6l1.3,0.9l-0.9,1.3l-0.3-0.2v-2H29.8z"/>
<rect x="33.2" y="13.9" class="wdt-logo-01" width="7.5" height="36.4"/>
<rect x="18.9" y="26.4" class="wdt-logo-01" width="4.2" height="24"/>
<rect x="8" y="44.3" class="wdt-logo-01" width="3.7" height="5.4"/>
</svg>
